<svg xmlns="http://www.w3.org/2000/svg" viewBox="0 0 306 306"><defs><style>.cls-1{fill:#edf3fe}.cls-3{fill:#d1e2fb}.cls-4{fill:#3c4043}.cls-5{fill:#34a753}.cls-6{fill:#fff}</style></defs><g id="Final"><circle class="cls-1" cx="153" cy="153" r="151.62"/><path class="cls-1" d="M153 305.62C68.85 305.62.38 237.15.38 153S68.85.38 153 .38 305.62 68.85 305.62 153 237.15 305.62 153 305.62zm0-303.24C70 2.38 2.38 70 2.38 153S70 303.62 153 303.62 303.62 236.05 303.62 153 236.05 2.38 153 2.38z"/><g opacity=".4"><path class="cls-3" d="M100.06 70.29v-59.4a152.06 152.06 0 00-89.26 89.4h59.26a30 30 0 0030-30z"/><path class="cls-3" d="M70.06 101.29H9.36l.5-1.35A152.56 152.56 0 0199.71 10l1.35-.5v60.79a31 31 0 01-31 31zm-57.82-2h57.82a29 29 0 0029-29V12.34a150.57 150.57 0 00-86.82 86.95z"/></g><path class="cls-3" d="M165.55 304.1a151.2 151.2 0 0099.24-48.68h-69.24a30 30 0 00-30 30z"/><path class="cls-3" d="M164.55 305.18v-19.76a31 31 0 0131-31h71.51l-1.53 1.68a152.09 152.09 0 01-99.9 49zm31-48.76a29 29 0 00-29 29V303a150 150 0 0095.94-46.59z"/><rect class="cls-4" x="65.1" y="177.05" width="170.82" height="28.89" rx="14.44"/><path class="cls-4" d="M221.47 206.94H79.54a15.45 15.45 0 010-30.89h141.93a15.45 15.45 0 110 30.89zM79.54 178.05a13.45 13.45 0 000 26.89h141.93a13.45 13.45 0 100-26.89z"/><path class="cls-5" d="M161.3 69.52l-57.84 107.54-15.54 28.88h112.37l15.54-28.88 32.62-60.66-87.15-46.88z"/><path class="cls-5" d="M200.89 206.94H86.25l74.64-138.78L249.81 116zm-111.3-2h110.1l47.41-88.14-85.39-45.93z"/><path class="cls-6" d="M201.23 146.35l-39.64 11.91-6.31-21-13.84 4.17 6.31 20.99 3.77 12.53.87 2.92 53.48-16.07-4.64-15.45z"/><path class="cls-6" d="M151.72 179.11l-11.52-38.36L156 136l6.31 21 39.59-11.9 5.22 17.37zm-9-37l10.37 34.53 51.56-15.49-4.06-13.54-39.67 11.89-6.31-21z"/><path class="cls-4" d="M104.34 177.53l-1.76-.95 58.31-108.42 88.04 47.36-.95 1.76-86.27-46.41-57.37 106.66z"/></g></svg>