<svg xmlns="http://www.w3.org/2000/svg" viewBox="0 0 306 306"><defs><style>.cls-1{fill:#edf3fe}.cls-2{fill:#d1e2fb}.cls-3{opacity:.4}.cls-4{fill:#fabb04}.cls-5{fill:#3c4043}</style></defs><g id="Final"><circle class="cls-1" cx="153" cy="153" r="151.62"/><path class="cls-1" d="M153 305.62C68.85 305.62.38 237.15.38 153S68.85.38 153 .38 305.62 68.85 305.62 153 237.16 305.62 153 305.62zm0-303.24C70 2.38 2.38 70 2.38 153S70 303.62 153 303.62 303.62 236.05 303.62 153 236.05 2.38 153 2.38z"/><path class="cls-2" d="M222 18c-.21 2.38-.32 4.78-.32 7.22A82.05 82.05 0 00297.5 107 152.06 152.06 0 00222 18z"/><path class="cls-2" d="M298.9 108.09l-1.47-.11a83.06 83.06 0 01-76.75-82.81c0-2.39.11-4.84.32-7.3l.13-1.48 1.32.67a153.78 153.78 0 0176 89.62zm-76-88.55c-.13 1.9-.2 3.78-.2 5.63a81.05 81.05 0 0073.41 80.69 151.8 151.8 0 00-73.23-86.32z"/><g class="cls-3"><path class="cls-2" d="M65.77 128H3.45a152 152 0 0010.87 86.38h51.45a43.2 43.2 0 0043.23-43.2A43.2 43.2 0 0065.77 128z"/><path class="cls-2" d="M65.77 215.37h-52.1l-.26-.59A151.47 151.47 0 01.38 153a153.94 153.94 0 012.08-25.17l.14-.83h63.17a44.19 44.19 0 110 88.38zm-50.79-2h50.79a42.19 42.19 0 100-84.38H4.3a151.15 151.15 0 00-1.92 24A149.51 149.51 0 0015 213.37z"/></g><g class="cls-3"><path class="cls-2" d="M289.64 218.79h-50.57a34 34 0 00-34 34v42.65a152.14 152.14 0 0084.57-76.65z"/><path class="cls-2" d="M204.08 296.87v-44.08a35 35 0 0135-35h52.16l-.69 1.44a154.12 154.12 0 01-85.12 77.15zm35-77.08a33 33 0 00-33 33V294a152.19 152.19 0 0082-74.21z"/></g><circle class="cls-4" cx="156.85" cy="233.16" r="14.9"/><path class="cls-5" d="M156.85 249.06a15.9 15.9 0 1115.9-15.9 15.92 15.92 0 01-15.9 15.9zm0-29.8a13.9 13.9 0 1013.9 13.9 13.92 13.92 0 00-13.9-13.9z"/><path class="cls-4" d="M167.52 205.31h-21.35c0-21.75 11.64-36.33 21.9-49.2 9.44-11.84 17.6-22.06 17.6-37 0-39.83-66.52-43.09-66.52 1.77H97.8c0-74 109.22-68.83 109.22-1.77 0 22.41-11.83 37.24-22.26 50.31-9.25 11.58-17.24 21.58-17.24 35.89z"/><path class="cls-4" d="M168.52 206.31h-23.35v-1c0-22.1 11.75-36.83 22.12-49.82 9.33-11.69 17.38-21.79 17.38-36.38 0-14.85-11.23-29.87-32.7-29.87A33.07 33.07 0 00130 97c-6.47 5.67-9.89 13.93-9.89 23.91v1H96.8v-1c0-17.2 5.89-31.51 17-41.37 9.79-8.67 23.13-13.44 37.58-13.44S180 71 190.22 79.6C201.86 89.37 208 103 208 119.11c0 22.77-11.94 37.73-22.48 50.94-9.13 11.44-17 21.33-17 35.26zm-21.34-2h19.36c.36-14.09 8.29-24 17.44-35.51 10.33-13 22-27.62 22-49.69 0-25.36-18.76-51-54.61-51-14 0-26.83 4.59-36.26 12.94-10.48 9.28-16.12 22.7-16.34 38.87h19.35c.22-10.12 3.86-18.55 10.56-24.41A35.09 35.09 0 01152 87.24a37.85 37.85 0 0123.77 8.13c7.15 5.88 10.93 14.09 10.93 23.74 0 15.29-8.26 25.64-17.82 37.62-10.03 12.54-21.35 26.73-21.7 47.58z"/><path class="cls-5" d="M168.52 205.31h-2c0-14.63 8.09-24.77 17.46-36.51 10.33-13 22-27.62 22-49.69 0-25.36-18.76-51-54.61-51-14 0-26.83 4.59-36.26 12.94-10.7 9.47-16.35 23.26-16.35 39.87h-2c0-17.2 5.89-31.51 17-41.37 9.79-8.67 23.13-13.44 37.58-13.44S180 71 190.22 79.6C201.86 89.37 208 103 208 119.11c0 22.77-11.94 37.73-22.48 50.94-9.11 11.44-17 21.33-17 35.26z"/></g></svg>