<svg xmlns="http://www.w3.org/2000/svg" viewBox="0 0 306 306"><defs><style>.cls-1{fill:#edf3fe}.cls-3{fill:#d1e2fb}.cls-4{fill:#4284f3}.cls-5{fill:#3c4043}.cls-6{fill:#fff}</style></defs><g id="Final"><circle class="cls-1" cx="153" cy="153" r="151.62"/><path class="cls-1" d="M153 305.62C68.84 305.62.38 237.15.38 153S68.84.38 153 .38 305.62 68.85 305.62 153 237.15 305.62 153 305.62zm0-303.24C70 2.38 2.38 70 2.38 153S70 303.62 153 303.62 303.62 236.05 303.62 153 236.05 2.38 153 2.38z"/><g opacity=".4"><path class="cls-3" d="M99.59 189.43H5.8a151.75 151.75 0 00123.79 113.39v-83.39a30 30 0 00-30-30z"/><path class="cls-3" d="M130.59 304l-1.15-.18A152.79 152.79 0 014.82 189.67l-.3-1.24h95.07a31 31 0 0131 31zM7.08 190.43a150.79 150.79 0 00121.51 111.22v-82.22a29 29 0 00-29-29z"/></g><rect class="cls-4" x="60.5" y="166.94" width="87.91" height="67.08" rx="33.54"/><path class="cls-4" d="M114.87 235H94a34.55 34.55 0 010-69.09h20.83a34.55 34.55 0 010 69.09zM94 167.94A32.55 32.55 0 0094 233h20.83a32.55 32.55 0 000-65.09z"/><circle class="cls-5" cx="104.46" cy="193.21" r="10.76"/><path class="cls-5" d="M104.46 205a11.76 11.76 0 1111.76-11.76A11.78 11.78 0 01104.46 205zm0-21.51a9.76 9.76 0 109.76 9.75 9.76 9.76 0 00-9.76-9.78z"/><rect class="cls-4" x="161.12" y="166.94" width="87.91" height="67.08" rx="33.54"/><path class="cls-4" d="M215.49 235h-20.83a34.55 34.55 0 010-69.09h20.83a34.55 34.55 0 010 69.09zm-20.83-67.09a32.55 32.55 0 000 65.09h20.83a32.55 32.55 0 000-65.09z"/><circle class="cls-5" cx="205.07" cy="193.21" r="10.76"/><path class="cls-5" d="M205.07 205a11.76 11.76 0 1111.76-11.76A11.77 11.77 0 01205.07 205zm0-21.51a9.76 9.76 0 109.76 9.75 9.76 9.76 0 00-9.76-9.78z"/><rect class="cls-4" x="60.5" y="84.59" width="188.53" height="67.08" rx="33.54"/><path class="cls-4" d="M215.49 152.67H94a34.54 34.54 0 010-69.08h121.49a34.54 34.54 0 010 69.08zM94 85.59a32.54 32.54 0 000 65.08h121.49a32.54 32.54 0 000-65.08z"/><circle class="cls-6" cx="154.17" cy="110.86" r="10.76"/><path class="cls-6" d="M154.17 122.61a11.76 11.76 0 1111.75-11.75 11.77 11.77 0 01-11.75 11.75zm0-21.51a9.76 9.76 0 109.75 9.76 9.77 9.77 0 00-9.75-9.76zm-27.49 50.57h55a28.29 28.29 0 00-55 0z"/><path class="cls-6" d="M182.93 152.67H125.4l.3-1.23a29.3 29.3 0 0156.93 0zm-54.95-2h52.38a27.3 27.3 0 00-52.38 0z"/><path class="cls-5" d="M104.46 212.43a28.28 28.28 0 00-26.21 17.65A33.47 33.47 0 0094 234h20.83a33.48 33.48 0 0015.8-3.95 28.28 28.28 0 00-26.17-17.62z"/><path class="cls-5" d="M114.87 235H94a34.6 34.6 0 01-16.22-4l-.8-.43.34-.83a29.29 29.29 0 0154.28 0l.34.83-.8.43a34.64 34.64 0 01-16.27 4zm-35.34-5.42A32.55 32.55 0 0094 233h20.83a32.59 32.59 0 0014.52-3.42 27.3 27.3 0 00-49.86 0zm125.54-17.15a28.29 28.29 0 00-26.21 17.65 33.48 33.48 0 0015.8 3.95h20.83a33.44 33.44 0 0015.79-3.95 28.28 28.28 0 00-26.21-17.65z"/><path class="cls-5" d="M215.49 235h-20.83a34.64 34.64 0 01-16.27-4l-.79-.43.33-.83a29.29 29.29 0 0154.28 0l.34.83-.8.43a34.6 34.6 0 01-16.26 4zm-35.35-5.42a32.59 32.59 0 0014.52 3.42h20.83a32.55 32.55 0 0014.51-3.39 27.3 27.3 0 00-49.86 0zm-81.49-78.91h111.03v2H98.65z"/><circle cx="222.67" cy="84.59" r="12.62"/><path class="cls-1" d="M222.67 98.21a13.62 13.62 0 1113.62-13.62 13.64 13.64 0 01-13.62 13.62zm0-25.24a11.62 11.62 0 1011.62 11.62A11.63 11.63 0 00222.67 73z"/></g></svg>