<svg id="Layer_1" data-name="Layer 1" xmlns="http://www.w3.org/2000/svg" viewBox="0 0 1100 800"><defs><style>.cls-1{fill:#fabb04}.cls-2{fill:#fff}.cls-3{fill:#3c4043}.cls-4{fill:#d0e1fa}.cls-5{fill:#e84335}.cls-6{fill:#f9d1ce}.cls-7{fill:#ff8969}.cls-8{fill:#4283f2}.cls-9{fill:#bb7b40}.cls-10{fill:#cce8d4}.cls-11{fill:#34a653}</style></defs><circle class="cls-1" cx="229.12" cy="245.35" r="57.98"/><path class="cls-1" d="M229.12 304.33a59 59 0 1159-59 59.05 59.05 0 01-59 59zm0-116a57 57 0 1057 57 57.05 57.05 0 00-57-56.96z"/><path class="cls-2" d="M211.68 100.27h389.39v285.22H211.68z"/><path class="cls-3" d="M601.07 386.48H211.68a1 1 0 01-1-1V100.27a1 1 0 011-1h389.39a1 1 0 011 1v285.21a1 1 0 01-1 1zm-388.39-2h387.39V101.27H212.68z"/><path class="cls-4" d="M211.68 423.87h389.39v122.74H211.68z"/><path class="cls-4" d="M601.07 547.61H211.68a1 1 0 01-1-1V423.87a1 1 0 011-1h389.39a1 1 0 011 1v122.74a1 1 0 01-1 1zm-388.39-2h387.39V424.87H212.68z"/><path class="cls-2" d="M638.63 316.24h241.82v230.37H638.63z"/><path class="cls-3" d="M880.45 547.61H638.63a1 1 0 01-1-1V316.24a1 1 0 011-1h241.82a1 1 0 011 1v230.37a1 1 0 01-1 1zm-240.82-2h239.82V317.24H639.63z"/><path class="cls-2" d="M638.63 100.27h241.82v178.08H638.63z"/><path class="cls-3" d="M880.45 279.35H638.63a1 1 0 01-1-1V100.27a1 1 0 011-1h241.82a1 1 0 011 1v178.08a1 1 0 01-1 1zm-240.82-2h239.82V101.27H639.63z"/><circle class="cls-5" cx="255.86" cy="611.05" r="12.33"/><path class="cls-5" d="M255.86 624.38a13.33 13.33 0 1113.33-13.33 13.34 13.34 0 01-13.33 13.33zm0-24.66a11.33 11.33 0 1011.33 11.33 11.34 11.34 0 00-11.33-11.33z"/><path class="cls-6" d="M255.86 649.49a38.44 38.44 0 010-76.88V562.3a48.75 48.75 0 1034.44 83.25l-7.9-6.71a38.3 38.3 0 01-26.54 10.65z"/><path class="cls-6" d="M255.86 660.8a49.75 49.75 0 010-99.5h1v12.31h-1a37.44 37.44 0 1025.85 64.51l.65-.62 9.42 8-.77.76a49.41 49.41 0 01-35.15 14.54zm-1-97.49a47.75 47.75 0 1034 82.29l-6.39-5.42a39.43 39.43 0 11-27.57-68.56z"/><path class="cls-5" d="M304.61 611.05a48.75 48.75 0 00-48.75-48.75v10.31a38.43 38.43 0 0126.54 66.23l7.9 6.71a48.6 48.6 0 0014.31-34.5z"/><path class="cls-5" d="M290.36 646.91l-9.45-8 .8-.77a37.09 37.09 0 0011.59-27.07 37.48 37.48 0 00-37.44-37.44h-1V561.3h1a49.74 49.74 0 0135.15 85zm-6.48-8.12l6.36 5.39a47.75 47.75 0 00-33.38-80.87v8.31a39.49 39.49 0 0138.44 39.43 39 39 0 01-11.42 27.74z"/><circle class="cls-1" cx="759.54" cy="428.89" r="62.4"/><path class="cls-1" d="M759.54 492.29a63.41 63.41 0 1163.4-63.41 63.48 63.48 0 01-63.4 63.41zm0-124.81a61.41 61.41 0 1061.4 61.4 61.48 61.48 0 00-61.4-61.4z"/><path class="cls-2" d="M440.89 385.48c28.74-26.61 115.93-91.34 115.93-91.34"/><path class="cls-3" d="M440.89 386.48a1 1 0 01-.73-.32 1 1 0 010-1.41c28.45-26.34 115.14-90.77 116-91.42a1 1 0 011.19 1.61c-.87.65-87.47 65-115.84 91.28a1 1 0 01-.62.26z"/><path class="cls-7" d="M440.89 251.86a216.3 216.3 0 0054.66-23c-21.73-4.65-37.65-6.42-37.65-6.42-13.38-10.9-14.37-17.51-7.76-40.13s-1.82-41-30.39-36-23.61 39-19.81 54.17 17.83 7.76 17.83 7.76c-1.48 12.88-4.18 24.66-4.18 24.66a206.05 206.05 0 00-35.71 10.22c11.35 8.57 31.55 17.25 63.01 8.74z"/><path class="cls-7" d="M416.33 256.35c-18 0-30.77-6.17-39.05-12.4a1 1 0 01-.39-.94 1 1 0 01.63-.79 208.75 208.75 0 0135.23-10.15c.55-2.48 2.54-11.86 3.82-22.19-2.35.89-6.78 2.06-10.8.27-3.33-1.48-5.61-4.65-6.8-9.4-2.72-10.89-6-31.09 2.45-44.1 4-6.09 10.08-9.89 18.16-11.3 12.64-2.19 22.34 0 28.05 6.42 6.07 6.78 7.3 17.74 3.47 30.85-6.51 22.3-5.38 28.57 7.21 38.89 2.28.27 17.52 2.13 37.44 6.4a1 1 0 01.78.81 1 1 0 01-.47 1 217.28 217.28 0 01-54.91 23.08 95.24 95.24 0 01-24.82 3.55zM380 243.43c11.54 8.11 31.1 15.47 60.67 7.47a216 216 0 0052.19-21.57c-20.14-4.19-34.88-5.85-35-5.87a.93.93 0 01-.52-.22c-13.52-11-14.88-17.94-8.09-41.18 3.63-12.42 2.55-22.71-3-29-5.22-5.85-14.29-7.84-26.22-5.77-7.51 1.3-13.17 4.8-16.82 10.41-8.06 12.38-4.83 32-2.19 42.52 1 4.13 2.94 6.84 5.67 8.06 4.8 2.14 10.67-.91 10.72-.94a1 1 0 011.47 1c-1.48 12.79-4.18 24.65-4.21 24.77a1 1 0 01-.78.76 207.43 207.43 0 00-33.89 9.56zm60.93 8.43z"/><path class="cls-8" d="M495.55 228.89a216.3 216.3 0 01-54.66 23c-31.46 8.51-51.66-.17-63-8.71-53.27 20.51-87.56 58.45-104.33 77.41-20.25 22.9-31.7 64.92 14.09 64.92h153.24l-45.36 38.39 62.54 52.58S615.72 380 615.72 310c0-47.79-73.49-71.12-120.17-81.11z"/><path class="cls-8" d="M458.07 477.45a1 1 0 01-.65-.24l-62.53-52.57a1 1 0 01-.36-.77 1 1 0 01.36-.76l43.27-36.63H287.64c-11 0-25.18-2.53-30.63-14.63-6.68-14.83 2.89-37.36 15.79-52 15-17 50.13-56.67 104.72-77.68a1 1 0 011 .13c11.31 8.51 31.27 16.9 62.15 8.55A215 215 0 00495 228a1 1 0 01.72-.12c45.18 9.67 121 33.2 121 82.08 0 29.35-26.64 66.44-79.19 110.26a759.78 759.78 0 01-78.94 57.05 1 1 0 01-.52.18zm-61-53.58l61.08 51.35a760 760 0 0078.11-56.53c51.32-42.79 78.45-80.38 78.45-108.7 0-47.33-74.37-70.44-119-80a216.91 216.91 0 01-54.57 22.88c-31.26 8.45-51.68.11-63.42-8.55-53.85 20.89-88.57 60.15-103.43 76.94-16.48 18.6-20.29 39.13-15.46 49.74 4 8.93 13.72 13.45 28.81 13.45h153.25a1 1 0 01.65 1.77z"/><path class="cls-3" d="M397.44 186.57s-23.26-28.17-4.27-41.88c11.23-7.1 16.68 1.32 28.9-1.16s11.39-14.69 24.6-13 12.39 16 9.91 25.26 10.24 10.57 4.29 23.12-14.68 16.79-14.68 24.91c-4.8-15.66 1.47-22.43 1.14-32.83s-13.55-6.94-11.56 4.29a12.21 12.21 0 01-3.14-12.88c-18.66 12-23.6-4.09-34.67 5.88.04-.04-1.41 11.95-.52 18.29z"/><path class="cls-3" d="M446.19 204.78a1 1 0 01-.95-.7c-3.15-10.25-1.63-17-.28-22.89a39.23 39.23 0 001.37-10.19c-.08-2.46-.94-4.2-2.44-4.91a4.45 4.45 0 00-4.58.74c-2.22 1.69-3.17 4.77-2.56 8.25a1 1 0 01-1.63.94 13.13 13.13 0 01-4-11.54c-9.14 5.19-15.07 3.61-19.91 2.32-4.27-1.14-7.66-2-12.27 1.95-.22 2.08-1.25 12.19-.48 17.7a1 1 0 01-.59 1 1 1 0 01-1.17-.28c-.56-.67-13.6-16.65-11.79-30.71a17.91 17.91 0 017.7-12.61c6.86-4.34 11.71-3.23 16.83-2 3.68.85 7.47 1.72 12.46.71 5.19-1.05 7.9-4 10.52-6.82 3.26-3.55 6.64-7.21 14.4-6.24 4.27.54 7.49 2.37 9.56 5.46 4.42 6.55 2.31 16.91 1.19 21.06-1 3.6.64 5.81 2.5 8.37 2.5 3.44 5.33 7.34 1.74 14.92a62 62 0 01-8.71 13.1c-3.28 4-5.88 7.23-5.88 11.38a1 1 0 01-.85 1zm-3.87-41.06a5.59 5.59 0 012.42.54c1.28.61 3.45 2.28 3.59 6.65a40.63 40.63 0 01-1.42 10.72c-1.15 5.05-2.32 10.24-.84 17.63 1.09-2.76 3.11-5.24 5.44-8.12a60.06 60.06 0 008.46-12.7c3.08-6.51.83-9.61-1.55-12.89-2-2.72-4-5.54-2.81-10.06 1-3.88 3-13.55-.92-19.43-1.73-2.58-4.48-4.12-8.14-4.58-6.75-.84-9.5 2.14-12.69 5.6-2.71 2.93-5.77 6.25-11.6 7.43-5.4 1.1-9.59.13-13.3-.72-4.91-1.14-9.15-2.12-15.26 1.74a16 16 0 00-6.84 11.21c-1.27 9.94 5.72 21.35 9.31 26.47a120.23 120.23 0 01.8-15.09 1 1 0 01.32-.62c5.56-5 9.86-3.86 14.41-2.65 5.06 1.34 10.79 2.87 20.39-3.33a1 1 0 011.16 0 1 1 0 01.33 1.1 11 11 0 001 9.53 9.31 9.31 0 013.5-7 7 7 0 014.24-1.43z"/><path class="cls-3" d="M417.77 208.27c8.75-3.47 18.94-10.9 18.94-10.9l-20.9 24.3a127.88 127.88 0 001.96-13.4z"/><path class="cls-3" d="M415.8 222.67a1 1 0 01-.43-.1 1 1 0 01-.55-1.09 125.29 125.29 0 001.95-13.28 1 1 0 01.63-.86c8.53-3.38 18.62-10.71 18.72-10.78a1 1 0 011.35 1.46l-20.91 24.31a1 1 0 01-.76.34zm2.93-13.67c-.23 3-.8 6.6-1.26 9.25l13.66-15.89a87.23 87.23 0 01-12.4 6.64z"/><path class="cls-7" d="M368.54 443.56l-37 22.82c-9.08 5.45-9.08 11.22 7.1 7.09s41.08-14.91 41.08-14.91z"/><path class="cls-7" d="M329.8 475.86c-2.52 0-4.5-.56-5.15-2.11-.93-2.23 1.41-5.23 6.41-8.23L368 442.71a1 1 0 011.33.25l11.21 15a1 1 0 01.17.86 1 1 0 01-.57.66c-.25.1-25.16 10.86-41.23 15a40 40 0 01-9.11 1.38zm38.48-31l-36.18 22.37c-4.42 2.65-5.93 5-5.6 5.75s3.26 1.73 11.92-.48c13.94-3.56 34.67-12.2 39.77-14.36z"/><path class="cls-3" d="M395.53 423.87c11.52-9.75 76.08 39.37 62.54 52.58s-77.18-31.84-62.54-52.58z"/><path class="cls-3" d="M451 479.81c-10.49 0-26.71-8.59-39.3-19.33-13-11.12-24.33-26.73-16.95-37.19a1 1 0 01.17-.18c8.62-7.3 40.52 13.66 56 30.68 9.65 10.62 12.45 18.92 7.88 23.38-1.91 1.83-4.6 2.64-7.8 2.64zm-54.7-55.25c-6.44 9.36 4.38 23.89 16.7 34.4 19.66 16.76 38.82 22.21 44.4 16.77 3.62-3.53.72-11-8-20.6-18.64-20.51-46.97-35.38-53.13-30.57z"/><path class="cls-7" d="M409.49 425s-33 5.88-44.56 22.89S323 518.72 323 518.72c-6.6 10.57-1 12.89 7.93 3.31s18.83-20.33 18.83-20.33-6.28 13.06 11.89 7.12c0 0-2.83 14.86 16.25 3 14.46-12.55 13.14-18.5 9.18-21.8 14.2-15.19 38-20.67 53.83-44.52a124.69 124.69 0 00-31.42-20.5z"/><path class="cls-7" d="M321.91 529.07a2.84 2.84 0 01-1.74-.54c-2-1.51-1.26-5.18 2-10.34.28-.5 30.51-54 42-70.87 4.91-7.22 14-13.35 27.09-18.19a119.42 119.42 0 0118.05-5.13 1 1 0 01.58.07 127 127 0 0131.69 20.67 1 1 0 01.14 1.28c-9.59 14.43-22.28 22.36-33.48 29.36-7.32 4.62-14.24 8.91-19.76 14.62a7.3 7.3 0 012.23 5.16c0 4.58-3.94 10.29-12.17 17.43l-.13.1c-7.42 4.62-12.48 5.87-15.47 3.82-2.22-1.52-2.52-4.43-2.45-6.24-5.92 1.73-9.72 1.52-11.62-.65a5.54 5.54 0 01-1.15-4.21 5218.59 5218.59 0 01-16.08 17.35c-3.82 4.05-7.34 6.31-9.73 6.31zm87.46-103c-3.3.64-33 6.79-43.61 22.41-11.41 16.77-41.6 70.23-41.91 70.77-3 4.74-3.08 7.25-2.46 7.72s3.78-.21 8.79-5.59C339 511.88 348.9 501.13 349 501a1 1 0 011.64 1.11c-.56 1.16-1.68 4.52-.26 6.12s5.29 1.47 10.93-.38a1 1 0 011.3 1.13s-.77 4.28 1.46 5.81 6.86.12 13.22-3.83c7.61-6.62 11.46-12 11.42-15.85a5.63 5.63 0 00-2.29-4.37 1 1 0 01-.36-.71 1 1 0 01.27-.74c5.8-6.21 13.11-10.78 20.85-15.61 11.37-7.11 23.12-14.45 32.4-28.07A125.75 125.75 0 00409.37 426z"/><path class="cls-2" d="M387.06 490c-5.45 6.11-11.56 16.18-11.56 16.18"/><path class="cls-3" d="M375.5 507.17a1 1 0 01-.5-.17 1 1 0 01-.34-1.37c.25-.42 6.22-10.23 11.67-16.34a1 1 0 111.49 1.34c-5.32 6-11.39 15.93-11.45 16a1 1 0 01-.87.54z"/><path class="cls-2" d="M361.63 508.82c3.79-9.75 18.86-31.54 18.86-31.54"/><path class="cls-3" d="M361.63 509.82a1.16 1.16 0 01-.37-.07 1 1 0 01-.57-1.3c3.8-9.74 18.36-30.85 19-31.74a1 1 0 011.65 1.13c-.15.22-15.05 21.82-18.76 31.34a1 1 0 01-.95.64z"/><path class="cls-2" d="M349.74 501.7c3.79-8.24 20.47-29.21 20.47-29.21"/><path class="cls-3" d="M349.73 502.7a1 1 0 01-.41-.09 1 1 0 01-.49-1.33c3.8-8.25 19.92-28.56 20.6-29.42a1 1 0 011.57 1.25c-.17.21-16.65 21-20.36 29a1 1 0 01-.91.59z"/><path class="cls-7" d="M524.05 303.9c9.38-6.45 14.7-8.54 15.8-5.67s-1.74 9.89-7.12 14l-15.51 11.85z"/><path class="cls-7" d="M517.22 325.07a1 1 0 01-1-1.32l6.83-20.17a1 1 0 01.38-.5c8.14-5.6 12.91-7.74 15.47-6.95a2.79 2.79 0 011.83 1.74c1.28 3.32-1.76 10.81-7.44 15.15l-15.51 11.85a1 1 0 01-.56.2zm7.67-20.53l-5.67 16.75 12.9-9.86c5.18-3.95 7.69-10.51 6.8-12.85a.84.84 0 00-.56-.54c-1.26-.39-4.61.44-13.47 6.5z"/><path class="cls-2" d="M461.15 327.83l-136.74-11.59"/><path class="cls-3" d="M461.15 328.83h-.09l-136.73-11.59a1 1 0 01.17-2l136.73 11.59a1 1 0 01-.08 2z"/><path class="cls-7" d="M516.94 308.51c9.38-6.45 13.79-8.65 14.89-5.78s-2.06 11.72-7.45 15.82l-15.32 11.81z"/><path class="cls-7" d="M509.06 331.36a1 1 0 01-.59-.19 1 1 0 01-.35-1.15l7.88-21.85a1 1 0 01.38-.48c8.68-6 12.37-7.75 14.61-7.06a2.75 2.75 0 011.77 1.74c1.38 3.57-2.28 12.8-7.77 17l-15.32 11.8a1 1 0 01-.61.19zm8.71-22.21l-6.61 18.33 12.61-9.72c5.21-4 8-12.38 7.12-14.68a.76.76 0 00-.49-.54c-2.03-.62-9.03 4.14-12.63 6.61z"/><path class="cls-3" d="M710.37 467.27a62.36 62.36 0 00100.21-2.49 64.31 64.31 0 00-100.21 2.49z"/><path class="cls-3" d="M759.54 492.29a63.06 63.06 0 01-50-24.4 1 1 0 010-1.22 65.31 65.31 0 01101.77-2.54 1 1 0 010 1.22 63.5 63.5 0 01-51.77 26.94zm-47.9-25a61.36 61.36 0 0097.67-2.44 63.31 63.31 0 00-97.67 2.44z"/><circle class="cls-3" cx="760.47" cy="407.69" r="15.13"/><path class="cls-3" d="M760.47 423.82a16.13 16.13 0 1116.13-16.13 16.15 16.15 0 01-16.13 16.13zm0-30.26a14.13 14.13 0 1014.13 14.13 14.15 14.15 0 00-14.13-14.13z"/><path class="cls-9" d="M808.61 242c-9.49-6-17.21-13.12-19.39-23.39-.22-12.78 15.63-22.68 14.31-48.89-1.1-30.38-60.77-49.1-71.56 2.65 0 0-5.63 46.46 27.57 46.46-3.72 8.31-15.39 13.73-29.06 19 13.84 7.06 42.46 17.34 78.13 4.17z"/><path class="cls-9" d="M774.12 248.82a97.68 97.68 0 01-43.86-10.51l-1-.51 1-.4c12.14-4.7 24.29-10 28.45-18.07-7.68-.18-13.89-2.88-18.47-8.05-11.76-13.27-8.83-38.71-8.8-39 6.84-32.81 31.19-33.33 38.49-32.71 18.24 1.55 33.52 15 34.06 30.11.8 15.74-4.61 25.75-8.95 33.79-2.92 5.4-5.45 10.07-5.36 15.1 1.85 8.67 7.76 15.79 19.16 23l.86.54-1 .35a99.73 99.73 0 01-34.58 6.36zm-42.41-10.9a96.28 96.28 0 0075.78 4c-11.09-7.16-16.89-14.34-18.76-23.17-.1-5.39 2.48-10.16 5.47-15.69 4.28-7.93 9.61-17.8 8.83-33.27-.52-14.57-15.39-27.65-33.14-29.16-7.1-.6-30.76-.08-37.43 31.88 0 .21-2.89 25.21 8.57 38.14 4.54 5.12 10.77 7.72 18.51 7.72h.78l-.32.7c-3.85 8.58-16 14.04-28.29 18.85z"/><path class="cls-10" d="M808.61 242c-35.67 13.16-64.29 2.88-78.13-4.15-22.88 8.86-51.36 17.35-57.46 38.44v2.05h183.36C852 260.89 827 253.6 808.61 242z"/><path class="cls-10" d="M856.38 279.35H673a1 1 0 01-1-1v-2.05a.84.84 0 010-.27c5.6-19.36 29.56-28.36 50.7-36.31 2.49-.93 5-1.86 7.36-2.79a1 1 0 01.82 0 95.77 95.77 0 0077.33 4.1 1 1 0 01.88.09c4.93 3.11 10.43 6 15.76 8.71 15 7.74 29.15 15.06 32.44 28.24a1 1 0 01-.18.85 1 1 0 01-.73.43zm-182.36-2h181c-3.66-11.55-17-18.43-31.07-25.71-5.21-2.69-10.6-5.47-15.49-8.52a97.77 97.77 0 01-78.03-4.12c-2.28.88-4.61 1.76-7 2.65-20.65 7.75-44.05 16.55-49.44 34.85z"/><path class="cls-8" d="M876.48 610.3a3.09 3.09 0 01-3.1 3.09h-18.55c-17.67 0-17.67 86.34-35.35 86.34s-17.67-86.34-35.35-86.34-17.67 30.8-35.34 30.8-17.67-30.8-35.35-30.8-17.67 53-35.34 53-17.67-53-35.34-53-17.67 30.8-35.34 30.8-17.67-30.8-35.34-30.8-17.67 64.13-35.34 64.13-17.68-64.13-35.35-64.13-17.67 86.34-35.34 86.34-17.67-86.34-35.34-86.34-17.67 53-35.34 53-17.67-53-35.34-53h-17.2a3.09 3.09 0 01-3.09-3.09 3.09 3.09 0 013.09-3.1H360c17.67 0 17.67-53 35.34-53s17.67 53 35.34 53 17.67-86.34 35.34-86.34 17.67 86.34 35.34 86.34 17.67-64.13 35.35-64.13 17.67 64.13 35.34 64.13 17.67-30.8 35.34-30.8 17.67 30.8 35.34 30.8 17.67-53 35.34-53 17.67 53 35.34 53 17.68-30.8 35.35-30.8 17.67 30.8 35.34 30.8 17.68-86.34 35.35-86.34 17.68 86.34 35.35 86.34h18.55a3.1 3.1 0 013.1 3.1z"/><path class="cls-8" d="M819.48 700.73c-9.65 0-14-21.35-18.65-44-4.07-19.86-8.68-42.37-16.7-42.37-8.25 0-12.41 7.24-16.8 14.9-4.49 7.82-9.13 15.9-18.54 15.9s-14.06-8.08-18.54-15.9c-4.4-7.66-8.55-14.9-16.81-14.9s-12.44 13.16-16.72 25.86c-4.46 13.36-9.06 27.19-18.62 27.19s-14.17-13.83-18.62-27.19c-4.23-12.7-8.61-25.83-16.72-25.83s-12.41 7.24-16.81 14.9c-4.48 7.82-9.12 15.9-18.53 15.9s-14-8.08-18.54-15.9c-4.39-7.66-8.55-14.9-16.8-14.9-8.07 0-12.46 15.93-16.71 31.33-4.65 16.87-9 32.8-18.63 32.8s-14-15.93-18.64-32.8c-4.24-15.4-8.63-31.33-16.71-31.33s-12.62 22.51-16.69 42.37c-4.62 22.62-9 44-18.65 44s-14-21.35-18.65-44c-4.06-19.86-8.67-42.37-16.69-42.37s-12.49 13.13-16.71 25.83c-4.45 13.36-9.06 27.19-18.62 27.19s-14.16-13.82-18.62-27.19c-4.23-12.7-8.6-25.83-16.72-25.83h-17.2a4.1 4.1 0 010-8.19H360c8.12 0 12.49-13.13 16.72-25.83 4.46-13.36 9.07-27.19 18.62-27.19S409.54 567 414 580.37c4.23 12.7 8.61 25.83 16.72 25.83s12.63-22.51 16.69-42.37c4.63-22.61 9-44 18.65-44s14 21.36 18.65 44c4.07 19.86 8.68 42.37 16.69 42.37s12.47-15.93 16.71-31.33c4.65-16.87 9-32.79 18.64-32.79s14 15.92 18.63 32.79c4.25 15.4 8.64 31.33 16.71 31.33 8.25 0 12.41-7.24 16.8-14.9 4.49-7.82 9.12-15.9 18.54-15.9s14.05 8.08 18.53 15.9c4.4 7.66 8.55 14.9 16.81 14.9s12.49-13.13 16.72-25.82c4.45-13.37 9.06-27.2 18.62-27.2s14.16 13.83 18.62 27.19c4.23 12.7 8.61 25.83 16.72 25.83s12.41-7.24 16.81-14.9c4.48-7.82 9.12-15.9 18.54-15.9s14.05 8.08 18.54 15.9c4.39 7.66 8.55 14.9 16.8 14.9 8 0 12.63-22.51 16.7-42.37 4.63-22.61 9-44 18.65-44s14 21.36 18.66 44c4.06 19.86 8.67 42.37 16.69 42.37h18.55a4.1 4.1 0 110 8.19h-18.56c-8 0-12.63 22.52-16.69 42.38-4.63 22.61-9 43.96-18.66 43.96zm-35.35-88.34c9.66 0 14 21.36 18.66 44 4.06 19.86 8.67 42.37 16.69 42.37s12.63-22.51 16.7-42.37c4.63-22.61 9-44 18.65-44h18.55a2.1 2.1 0 100-4.19h-18.55c-9.65 0-14-21.36-18.65-44-4.07-19.86-8.68-42.37-16.7-42.37s-12.63 22.51-16.69 42.37c-4.63 22.61-9 44-18.66 44-9.41 0-14-8.09-18.54-15.9-4.39-7.66-8.54-14.9-16.8-14.9s-12.41 7.24-16.81 14.9c-4.48 7.81-9.12 15.9-18.54 15.9s-14.16-13.83-18.62-27.2c-4.23-12.7-8.61-25.83-16.72-25.83s-12.49 13.14-16.72 25.83c-4.46 13.37-9.07 27.19-18.62 27.19s-14-8.09-18.54-15.9-8.55-14.9-16.8-14.9-12.41 7.24-16.8 14.9c-4.49 7.81-9.13 15.9-18.54 15.9-9.6 0-14-15.93-18.64-32.8-4.24-15.4-8.63-31.32-16.7-31.32S524.27 560 520 575.4c-4.65 16.87-9 32.8-18.64 32.8s-14-21.36-18.65-44c-4.06-19.86-8.67-42.37-16.69-42.37s-12.62 22.51-16.69 42.37c-4.62 22.61-9 44-18.65 44s-14.13-13.83-18.59-27.2c-4.23-12.7-8.6-25.83-16.72-25.83s-12.49 13.14-16.72 25.83c-4.45 13.36-9.06 27.19-18.62 27.19h-17.2a2.1 2.1 0 000 4.19H360c9.56 0 14.17 13.83 18.62 27.2 4.23 12.69 8.61 25.82 16.72 25.82s12.49-13.13 16.72-25.83c4.46-13.36 9.07-27.19 18.62-27.19s14 21.36 18.65 44c4.07 19.86 8.67 42.37 16.69 42.37s12.63-22.51 16.69-42.37c4.63-22.61 9-44 18.65-44s14 15.94 18.64 32.8c4.24 15.4 8.63 31.33 16.71 31.33s12.46-15.93 16.7-31.33c4.65-16.87 9-32.8 18.64-32.8 9.41 0 14 8.09 18.54 15.91 4.39 7.66 8.54 14.89 16.8 14.89s12.4-7.23 16.8-14.89c4.49-7.82 9.12-15.91 18.54-15.91s14.16 13.83 18.62 27.19c4.23 12.7 8.6 25.83 16.72 25.83s12.49-13.13 16.72-25.83c4.46-13.36 9.07-27.19 18.62-27.19s14.09 8.1 18.59 15.92c4.4 7.66 8.55 14.89 16.81 14.89s12.41-7.23 16.8-14.89c4.47-7.82 9.11-15.91 18.52-15.91z"/><path class="cls-3" d="M461.15 327.83c-15 0-48 57.65-48 57.68h27.73l23.53-19c3.36-16.84 5.95-38.68-3.26-38.68z"/><path class="cls-3" d="M413.15 386.51a1 1 0 01-1-1c0-.73 9.87-17 18.57-29.43 13.63-19.41 23.87-29.25 30.43-29.25a5.6 5.6 0 014.52 2.15c3.87 4.72 3.78 17.39-.28 37.68a1 1 0 01-.35.58l-23.53 19a1 1 0 01-.63.23zm48-57.68c-4 0-12.23 4.88-28.6 28.13-8.25 11.71-15.29 23.5-17.67 27.55h25.64l23-18.59c3.76-18.92 4-31.57.63-35.66a3.65 3.65 0 00-3-1.43zm3.26 37.63z"/><path class="cls-7" d="M441.62 343.3c18 5 60.29-25.63 73.91-34 10.32-6.77 7 10.59-4.17 19.17l-70.47 57h-27.74s19.1-32.18 28.47-42.17z"/><path class="cls-7" d="M413.15 386.51a1 1 0 01-.87-.5 1 1 0 010-1c.78-1.32 19.26-32.43 28.6-42.39a1 1 0 011-.28c14.8 4.12 47.45-17.19 65-28.64 3.23-2.11 6-3.93 8.12-5.21 4.3-2.82 6.2-1.47 7-.42 2.66 3.74-1.79 14.92-10 21.23l-70.45 57a1 1 0 01-.63.22h-27.74zm28.8-42.1c-8.14 9-23.2 33.72-27 40.1h25.63l70.19-56.76c7.91-6.09 11.28-16.14 9.6-18.5-.8-1.13-3.24.28-4.25.95-2.1 1.28-4.88 3.1-8.1 5.2-16.22 10.58-45.16 29.46-62 29.46a17.6 17.6 0 01-4.02-.45z"/><path class="cls-3" d="M732 172.38c22.46 4.4 44.7-13.21 44.7-13.21L780 186s7.27-11 13.87-11 5.95 14.53-5.94 24.88c-12.55 13.43-4 91.38 45.36 91.38 28.62 0 36.33-21.36 36.33-38.54 0-38.75-55.27-52-55.27-76.62 0-20.48-11.83-45.8-49.62-45.8-30.3 0-38.45 33.47-46.16 52.19s-27.71 72.7-27.71 72.7c14.69-11.69 61.43-19.86 68.71-36.37-25.31-.31-29.03-27.23-27.57-46.44z"/><path class="cls-3" d="M833.26 292.28c-19 0-34.46-11.69-43.67-32.9-10.31-23.73-9.75-52.32-2.42-60.16l.07-.07c8.85-7.71 10.81-17.08 9.34-21a2.83 2.83 0 00-2.74-2.13c-6 0-13 10.45-13 10.56a1 1 0 01-1.83-.43L775.89 161c-5.19 3.73-23.7 15.75-43 12.56-.63 10-.14 27.05 8.89 36.9 4.39 4.8 10.38 7.28 17.78 7.38a1 1 0 01.83.45 1 1 0 01.07 1c-4.53 10.27-22.93 17.13-40.72 23.76-11.58 4.32-22.51 8.4-28.29 13a1 1 0 01-1.56-1.13c.2-.54 20.1-54.22 27.73-72.74 1-2.38 2-5 3-7.8 7.15-19 17-45 44.06-45 17.44 0 30.81 5.24 39.74 15.57 7 8.12 10.88 19.21 10.88 31.23 0 10.46 10.48 18.83 22.61 28.52 15.31 12.22 32.66 26.07 32.66 48.1.02 9.2-2.67 39.48-37.31 39.48zm-44.66-91.66c-6.85 7.42-6.9 35.58 2.82 58 11.37 26.19 29 31.69 41.84 31.69 32.78 0 35.33-28.73 35.33-37.54 0-21.07-17-34.6-31.9-46.54-12-9.6-23.37-18.66-23.37-30.08 0-21.66-12.77-44.8-48.62-44.8-25.72 0-35.24 25.26-42.19 43.71-1 2.8-2 5.44-3 7.86-6.56 15.93-22.25 58-26.58 69.65 6.32-4 16-7.62 26.15-11.41 15.8-5.89 33.6-12.53 38.89-21.35-7.24-.43-13.17-3.1-17.62-8-9.92-10.81-10.13-29.38-9.35-39.51a1 1 0 011.19-.9c11.32 2.22 22.62-1.42 30.11-4.87a74.64 74.64 0 0013.77-8.15 1 1 0 011.61.66l3 24.34c2.55-3.31 7.94-9.36 13.18-9.36a4.84 4.84 0 014.62 3.43c2 5.4-1.14 15.55-9.88 23.17z"/><path class="cls-2" d="M759.54 218.84c9-.83 17.57-6 17.57-6"/><path class="cls-3" d="M759.54 219.84a1 1 0 01-.09-2c8.66-.8 17.07-5.76 17.15-5.81a1 1 0 111 1.72c-.36.21-8.88 5.24-18 6.08zM440.89 386.48H230.05a1 1 0 110-2h210.84a1 1 0 010 2zM321.64 530.08a1 1 0 01-.24 0 3.14 3.14 0 01-2.25-1.9c-1.27-3.24 2.55-9.29 3-10 .28-.49 30.51-54 42-70.86 11.61-17.15 43.85-23.07 45.16-23.32a1 1 0 11.35 2c-.32.06-32.72 6-43.9 22.47-11.41 16.77-41.6 70.23-41.91 70.77-1.47 2.28-3.52 6.47-2.83 8.2a1.1 1.1 0 00.87.69 1 1 0 01.72 1.21 1 1 0 01-.97.74z"/><circle class="cls-1" cx="234.84" cy="122.49" r="4.79"/><path class="cls-1" d="M234.84 128.28a5.79 5.79 0 115.79-5.79 5.8 5.8 0 01-5.79 5.79zm0-9.58a3.79 3.79 0 103.79 3.79 3.79 3.79 0 00-3.79-3.79z"/><circle class="cls-1" cx="251.03" cy="122.49" r="4.79"/><path class="cls-1" d="M251 128.28a5.79 5.79 0 115.79-5.79 5.8 5.8 0 01-5.79 5.79zm0-9.58a3.79 3.79 0 103.79 3.79 3.79 3.79 0 00-3.79-3.79z"/><circle class="cls-1" cx="267.22" cy="122.49" r="4.79"/><path class="cls-1" d="M267.22 128.28a5.79 5.79 0 115.79-5.79 5.8 5.8 0 01-5.79 5.79zm0-9.58a3.79 3.79 0 103.79 3.79 3.79 3.79 0 00-3.79-3.79z"/><circle class="cls-1" cx="661.62" cy="122.49" r="4.79"/><path class="cls-1" d="M661.62 128.28a5.79 5.79 0 115.79-5.79 5.8 5.8 0 01-5.79 5.79zm0-9.58a3.79 3.79 0 103.79 3.79 3.79 3.79 0 00-3.79-3.79z"/><circle class="cls-1" cx="677.81" cy="122.49" r="4.79"/><path class="cls-1" d="M677.81 128.28a5.79 5.79 0 115.79-5.79 5.8 5.8 0 01-5.79 5.79zm0-9.58a3.79 3.79 0 103.79 3.79 3.79 3.79 0 00-3.79-3.79z"/><circle class="cls-1" cx="694" cy="122.49" r="4.79"/><path class="cls-1" d="M694 128.28a5.79 5.79 0 115.79-5.79 5.8 5.8 0 01-5.79 5.79zm0-9.58a3.79 3.79 0 103.79 3.79 3.79 3.79 0 00-3.79-3.79z"/><circle class="cls-1" cx="661.62" cy="339.81" r="4.79"/><path class="cls-1" d="M661.62 345.6a5.79 5.79 0 115.79-5.79 5.8 5.8 0 01-5.79 5.79zm0-9.58a3.79 3.79 0 103.79 3.79 3.79 3.79 0 00-3.79-3.81z"/><circle class="cls-1" cx="677.81" cy="339.81" r="4.79"/><path class="cls-1" d="M677.81 345.6a5.79 5.79 0 115.79-5.79 5.8 5.8 0 01-5.79 5.79zm0-9.58a3.79 3.79 0 103.79 3.79 3.79 3.79 0 00-3.79-3.81z"/><circle class="cls-1" cx="694" cy="339.81" r="4.79"/><path class="cls-1" d="M694 345.6a5.79 5.79 0 115.79-5.79 5.8 5.8 0 01-5.79 5.79zm0-9.58a3.79 3.79 0 103.79 3.79A3.79 3.79 0 00694 336z"/><path class="cls-3" d="M440.89 386.48a1 1 0 01-.63-1.77l70.47-57c7.91-6.09 11.28-16.14 9.6-18.5-.8-1.13-3.24.28-4.25.95-2.1 1.28-4.88 3.1-8.1 5.2-17.81 11.62-51 33.25-66.63 28.89a1 1 0 01-.69-1.23 1 1 0 011.23-.7c14.8 4.12 47.45-17.19 65-28.64 3.23-2.11 6-3.93 8.12-5.21 4.3-2.82 6.2-1.47 7-.42 2.66 3.74-1.79 14.92-10 21.23l-70.45 57a1 1 0 01-.67.2z"/><path class="cls-3" d="M524.39 319.55a1 1 0 01-.61-1.79c5.2-4 8-12.38 7.11-14.68a.76.76 0 00-.49-.54c-2.08-.64-9.38 4.38-12.89 6.8a1 1 0 01-1.39-.26 1 1 0 01.26-1.39c8.68-6 12.37-7.75 14.61-7.06a2.75 2.75 0 011.77 1.74c1.38 3.57-2.28 12.8-7.77 17a1 1 0 01-.6.18z"/><path class="cls-3" d="M532.73 313.22a1 1 0 01-.61-1.79c5.18-3.95 7.69-10.51 6.8-12.85a.84.84 0 00-.56-.54c-1.27-.39-4.68.45-13.74 6.68a1 1 0 11-1.14-1.64c8.14-5.6 12.91-7.74 15.47-6.95a2.79 2.79 0 011.83 1.74c1.28 3.32-1.76 10.81-7.44 15.15a1 1 0 01-.61.2zM808.61 279.35h-147a1 1 0 010-2h147a1 1 0 010 2z"/><path class="cls-5" transform="rotate(45 1009.428 415.659)" d="M994.27 400.5h30.32v30.32h-30.32z"/><path class="cls-5" d="M1009.43 438.52l-22.86-22.86 22.86-22.85 22.85 22.85zm-20-22.86l20 20 20-20-20-20z"/><path class="cls-2" d="M22.74 396.81s56.66-84.59 92.63-84.59-37.06 208.64-37.06 208.64 55.58-77.3 95.9-77.3"/><path class="cls-3" d="M78.31 521.86a1.11 1.11 0 01-.46-.11 1 1 0 01-.48-1.22c.62-1.78 62.06-178.24 43.52-204.36a6.41 6.41 0 00-5.52-2.95c-35 0-91.24 83.3-91.8 84.14a1 1 0 01-1.39.28 1 1 0 01-.27-1.39 459.2 459.2 0 0132.91-42.4c25-28.29 45.33-42.63 60.55-42.63a8.4 8.4 0 017.15 3.79c8.09 11.39 3.24 49.59-14.4 113.55-10.27 37.2-22.12 72.74-26.78 86.57 13.34-17.47 58.16-72.57 92.87-72.57a1 1 0 010 2c-16.21 0-37.76 13.25-62.34 38.33a380.1 380.1 0 00-32.75 38.55 1 1 0 01-.81.42z"/><path class="cls-11" d="M941.59 229.37h135.67v27.01H941.59z"/><path class="cls-11" d="M1077.26 257.38H941.59a1 1 0 01-1-1v-27a1 1 0 011-1h135.67a1 1 0 011 1v27a1 1 0 01-1 1zm-134.67-2h133.67v-25H942.59z"/></svg>